/* XPM */
static const char * find_xpm[] = {
"16 16 76 1",
" 	c None",
".	c #9D9D9D",
"+	c #979797",
"@	c #B8B8B8",
"#	c #DFDFDF",
"$	c #F1F1F1",
"%	c #919191",
"&	c #CCCCCC",
"*	c #F4F4F4",
"=	c #E6E6E6",
"-	c #D9D9D9",
";	c #C7C7C7",
">	c #B1B1B1",
",	c #F3F3F3",
"'	c #D6D6D6",
")	c #CACACA",
"!	c #D8D8D8",
"~	c #A6A6A6",
"{	c #838383",
"]	c #DBDBDB",
"^	c #E4E4E4",
"/	c #D0D0D0",
"(	c #CFCFCF",
"_	c #D1D1D1",
":	c #E8E8E8",
"<	c #DCDCDC",
"[	c #7B7B7B",
"}	c #D7D7D7",
"|	c #DDDDDD",
"1	c #EDEDED",
"2	c #737373",
"3	c #E0E0E0",
"4	c #DEDEDE",
"5	c #E1E1E1",
"6	c #EFEFEF",
"7	c #6B6B6B",
"8	c #EEEEEE",
"9	c #F0F0F0",
"0	c #939393",
"a	c #F8F8F8",
"b	c #F6F6F6",
"c	c #888888",
"d	c #5C5C5C",
"e	c #AEAEAE",
"f	c #FAFAFA",
"g	c #A9A9A9",
"h	c #5F5F5F",
"i	c #989898",
"j	c #565656",
"k	c #7F7F7F",
"l	c #C9C9C9",
"m	c #ECECEC",
"n	c #606060",
"o	c #C2D2AA",
"p	c #6F9045",
"q	c #505050",
"r	c #88A656",
"s	c #A0BA74",
"t	c #BDCDA3",
"u	c #68873D",
"v	c #59782B",
"w	c #799A45",
"x	c #92B063",
"y	c #B8C99E",
"z	c #617E35",
"A	c #4F6D21",
"B	c #6B8F36",
"C	c #83A552",
"D	c #B2C598",
"E	c #526F25",
"F	c #466317",
"G	c #5F8529",
"H	c #779C44",
"I	c #657F3D",
"J	c #3F5B0F",
"K	c #446212",
"    ....        ",
"  +@#$$#@+      ",
" %&*=--=*;%     ",
" >,'&))&!,~     ",
"{]^/((((_:<{    ",
"[$<}}}}}}|1[    ",
"2$3444444562    ",
"7'8======9'7    ",
" 0a811116bc     ",
" defa**afghi    ",
"  jklmmlkhnop   ",
"    qqqq irstu  ",
"          vwxyz ",
"           ABCDE",
"            FGHI",
"             JK "};
