/* XPM */
static const char * xpm16x16_Folder_HI[] = {
"16 16 46 1",
" 	c None",
".	c #D6AD29",
"+	c #FEF8D0",
"@	c #FDF2A4",
"#	c #FEF2A5",
"$	c #FDF2A6",
"%	c #FEF3A7",
"&	c #FDED7F",
"*	c #FEEE81",
"=	c #FDEE83",
"-	c #FDEE85",
";	c #FEEE85",
">	c #FDEE86",
",	c #FDE960",
"'	c #FDEA65",
")	c #FDEA69",
"!	c #FEEB6D",
"~	c #FDEB6E",
"{	c #FEEC6F",
"]	c #FEE74B",
"^	c #FEE852",
"/	c #FEE959",
"(	c #FEEA5D",
"_	c #FEEA60",
":	c #FEEA61",
"<	c #000000",
"[	c #FEE95B",
"}	c #FEEA64",
"|	c #FEEB6B",
"1	c #FEEC71",
"2	c #FEED75",
"3	c #FEED76",
"4	c #FEEB68",
"5	c #FEEC72",
"6	c #FEED7B",
"7	c #FEEF86",
"8	c #FEEF87",
"9	c #FEEE7C",
"0	c #FEF08E",
"a	c #FEF092",
"b	c #FEF194",
"c	c #FEED78",
"d	c #FEEE83",
"e	c #FEF195",
"f	c #FEF19A",
"g	c #FEF29C",
"                ",
"                ",
"   ...          ",
"  .+++.         ",
" .@#$%%.......  ",
" .&*=-;>;-=*&.  ",
" .,')!~{~!)',.  ",
" .]^/(_:_(/^].< ",
" .[}|12321|}[.< ",
" .456*787*654.< ",
" .1970aba0791.< ",
" .cd0efgfe0dc.< ",
" .............  ",
"    <<<<<<<<<   ",
"                ",
"                "};
