/* XPM */
static const char * hourglass_xpm[] = {
"16 16 112 2",
"  	c None",
". 	c #884939",
"+ 	c #A76E58",
"@ 	c #B6836A",
"# 	c #B4816A",
"$ 	c #9B5E49",
"% 	c #7A2C1D",
"& 	c #6B2B21",
"* 	c #6B2B22",
"= 	c #5F201A",
"- 	c #7E5048",
"; 	c #A28C88",
"> 	c #B5A4A3",
", 	c #AF9D9F",
"' 	c #89605F",
") 	c #773326",
"! 	c #7E382A",
"~ 	c #C5CECE",
"{ 	c #ECF8F8",
"] 	c #D6D7D9",
"^ 	c #D2F1FF",
"/ 	c #B1E3FF",
"( 	c #887F8B",
"_ 	c #782817",
": 	c #925444",
"< 	c #D4ECEF",
"[ 	c #F6FCFE",
"} 	c #CBD9E1",
"| 	c #ABDFFF",
"1 	c #99D3FF",
"2 	c #A7B4CF",
"3 	c #7E2D1B",
"4 	c #9B5C4A",
"5 	c #BEBEB6",
"6 	c #E3D8AF",
"7 	c #D8C396",
"8 	c #C1B397",
"9 	c #999FA1",
"0 	c #9A8C8C",
"a 	c #7D3021",
"b 	c #9E5D4B",
"c 	c #8E6953",
"d 	c #E9DBA8",
"e 	c #E9CA8A",
"f 	c #D3AC7B",
"g 	c #87817A",
"h 	c #7F3527",
"i 	c #9D5E49",
"j 	c #A37E5B",
"k 	c #E6C58B",
"l 	c #AF997B",
"m 	c #7D3B2D",
"n 	c #9B5C47",
"o 	c #A88165",
"p 	c #7B3724",
"q 	c #9B5B48",
"r 	c #897779",
"s 	c #CCBCB4",
"t 	c #A4C2D3",
"u 	c #7F3B2C",
"v 	c #9E5D48",
"w 	c #6E656E",
"x 	c #DFF0F4",
"y 	c #D4C8BF",
"z 	c #DAF3FF",
"A 	c #A1C7E2",
"B 	c #7F6563",
"C 	c #833728",
"D 	c #995B49",
"E 	c #C3CAD0",
"F 	c #F5FDFE",
"G 	c #BBAFA5",
"H 	c #ADD7F1",
"I 	c #B6E1FF",
"J 	c #A9A7B5",
"K 	c #762B1B",
"L 	c #9C5D4C",
"M 	c #DCE8EF",
"N 	c #D4EEF5",
"O 	c #BAB1A6",
"P 	c #B0DDF6",
"Q 	c #9BD0FF",
"R 	c #B6B0CB",
"S 	c #592415",
"T 	c #874334",
"U 	c #AFBDCA",
"V 	c #DFECDB",
"W 	c #E0C18B",
"X 	c #C4BEA7",
"Y 	c #9BBEE7",
"Z 	c #94899D",
"` 	c #562315",
" .	c #813E2E",
"..	c #64342D",
"+.	c #A08F68",
"@.	c #CEB67E",
"#.	c #AE936B",
"$.	c #625D59",
"%.	c #78453A",
"&.	c #6B2A1F",
"*.	c #A36450",
"=.	c #C3937A",
"-.	c #814B3D",
";.	c #77493C",
">.	c #683A30",
",.	c #672C21",
"'.	c #753025",
").	c #683A2E",
"!.	c #693B2E",
"~.	c #68392D",
"{.	c #5D291E",
"].	c #501A11",
"      . . + @ # $ % & * =       ",
"      . . - ; > , ' ) * =       ",
"        ! ~ { ] ^ / ( _         ",
"        : < [ } | 1 2 3         ",
"        4 5 6 7 8 9 0 a         ",
"        b c d e f g   h         ",
"        i   j k l     m         ",
"        n     o       p         ",
"        q   r s t     u         ",
"        v w x y z A B C         ",
"        D E F G H I J K         ",
"        L M N O P Q R S         ",
"        T U V W X Y Z `         ",
"         ...+.@.#.$.%.&.        ",
"      *.=.*.-.;.>.,.'.= =       ",
"      *.*.).!.~.{.].= = =       "};
