/* XPM */
static const char* xpm16x16_Link[] = {
/* columns rows colors chars-per-pixel */
"16 16 32 1 ",
"  c #0070BB",
". c #007DC6",
"X c #5DABDF",
"o c #0063B1",
"O c #0062B0",
"+ c #0072BC",
"@ c #006CB7",
"# c #0082CA",
"$ c #1290D2",
"% c #2591CF",
"& c #007CC4",
"* c #0082CA",
"= c #82BDE7",
"- c #3BA3DB",
"; c #5EADE0",
": c #80BBE7",
"> c #0B86CB",
", c #2F98D3",
"< c #48A0D7",
"1 c #54A6DA",
"2 c #70B2E1",
"3 c #6DB3E3",
"4 c #7AB9E5",
"5 c #006CB7",
"6 c #006FBA",
"7 c #5FACDF",
"8 c #64AEE0",
"9 c #198FD1",
"0 c #86BFE8",
"q c #006CB8",
"w c #76B7E4",
"e c None",
/* pixels */
"eeeeeeq22211,,,>",
"eeeeeeew2211,,,,",
"eeeeeeeew11,>>>>",
"e7;:21weX1,>>>>>",
"044438e >>&&>>+&",
"44qeee5>&&&&++++",
"4;eee5,>&&&&&&++",
"23eee%>>&&&& qO+",
"1-eee6&&&&& eeq&",
",$eeee6&&+ eqeee",
",#eeeee @qe +eee",
">#eeeeeeeee+oeee",
">.eeeeeeeee@oeee",
">+eeeeeeeeeO@eee",
" >>O.o@@O@O+qeee",
"e6&>+++++++6eeee"
};
