/* XPM */
static const char * xpm16x16_Ok[] = {
"16 16 32 1",
" 	c None",
".	c #55A04C",
"+	c #4C9C43",
"@	c #4C9A44",
"#	c #6CB262",
"$	c #85C87A",
"%	c #559C4D",
"&	c #8DCF81",
"*	c #8BCF7F",
"=	c #408539",
"-	c #68B75E",
";	c #89CD7D",
">	c #87CD7C",
",	c #387C32",
"'	c #66B55B",
")	c #86C979",
"!	c #5AA651",
"~	c #5CB44E",
"{	c #86CC7C",
"]	c #85CB79",
"^	c #4EAC40",
"/	c #90D284",
"(	c #85C97A",
"_	c #83C978",
":	c #82CB78",
"<	c #48A33C",
"[	c #89CE7E",
"}	c #87CC7B",
"|	c #81CA76",
"1	c #3A9430",
"2	c #5CA354",
"3	c #377B31",
"                ",
"                ",
"                ",
"                ",
"          .+@   ",
"         .#$%   ",
"        .#&*=   ",
"    -  .#;>,    ",
"   ')! ~{],     ",
"   ^/(#_:,      ",
"    <[}|,       ",
"     12,        ",
"      3         ",
"                ",
"                ",
"                "};
