/* XPM */
static const char * panel_open_close_xpm[] = {
"16 16 5 1",
" 	c None",
".	c #38CDE3",
"+	c #0000FF",
"@	c #FFFFFF",
"#	c #000000",
"                ",
"........        ",
"+++@++++        ",
"+++@++++    ##  ",
"+++@++++   ##   ",
"+++@++++  ##    ",
"+++@++++ ##     ",
"........##      ",
"       ##.......",
"      ## #######",
"     ##  #######",
"    ##   @######",
"   ##    @@#####",
"         @######",
"         .......",
"                "};
