/* XPM */
static const char * xpm16x16_Redo[] = {
"16 16 88 1",
" 	c None",
".	c #093909",
"+	c #129208",
"@	c #009200",
"#	c #4BF13D",
"$	c #6BF75A",
"%	c #1B6317",
"&	c #0E8C06",
"*	c #009000",
"=	c #3FE732",
"-	c #5EED4C",
";	c #2E8028",
">	c #91FE85",
",	c #0D7D07",
"'	c #008600",
")	c #2FD322",
"!	c #4CD53A",
"~	c #1C7716",
"{	c #6EFE5F",
"]	c #34D028",
"^	c #0E6708",
"/	c #006F00",
"(	c #18B90D",
"_	c #5DB745",
":	c #21741B",
"<	c #2B8525",
"[	c #32852D",
"}	c #34852F",
"|	c #30852B",
"1	c #247B1D",
"2	c #28761F",
"3	c #39E82C",
"4	c #15B806",
"5	c #098601",
"6	c #0D5507",
"7	c #004C00",
"8	c #008000",
"9	c #10B507",
"0	c #20D714",
"a	c #30F220",
"b	c #41FD2F",
"c	c #4CFE3C",
"d	c #4BFB39",
"e	c #40F331",
"f	c #34DA27",
"g	c #21B819",
"h	c #189812",
"i	c #1B6E18",
"j	c #337330",
"k	c #0A4506",
"l	c #035203",
"m	c #007200",
"n	c #00A800",
"o	c #03C600",
"p	c #0AD801",
"q	c #0EE004",
"r	c #13DE08",
"s	c #18D10E",
"t	c #1DBF17",
"u	c #1FAF1B",
"v	c #229721",
"w	c #2D782E",
"x	c #418142",
"y	c #427B41",
"z	c #072F07",
"A	c #103C0F",
"B	c #0B460A",
"C	c #0A4C08",
"D	c #0B5309",
"E	c #0D5A0A",
"F	c #0E5D0B",
"G	c #0F5E0B",
"H	c #105D0C",
"I	c #105B0C",
"J	c #0E560C",
"K	c #32892F",
"L	c #276D26",
"M	c #367B36",
"N	c #3B7339",
"O	c #063006",
"P	c #043B01",
"Q	c #378637",
"R	c #377536",
"S	c #073006",
"T	c #063803",
"U	c #3E863C",
"V	c #161D14",
"W	c #082B08",
"                ",
"                ",
"                ",
"          .     ",
"+@#$      %     ",
"&*=-      ;>    ",
",')!      ~{]   ",
"^/(_:<[}|12345  ",
"67890abcdefghij ",
"klmnopqrstuvwxyz",
"ABCDEFGHIJKLMNO ",
"          PQRS  ",
"          TUz   ",
"          VW    ",
"          .     ",
"                "};
