/* XPM */
static const char * xpm16x16_Undo[] = {
"16 16 92 2",
"  	c None",
". 	c #171519",
"+ 	c #636461",
"@ 	c #4A5549",
"# 	c #283A27",
"$ 	c #FEFEFE",
"% 	c #31592C",
"& 	c #1D371A",
"* 	c #BBE3AA",
"= 	c #B7D3A7",
"- 	c #316C2A",
"; 	c #154B11",
"> 	c #144C10",
", 	c #134D10",
"' 	c #134C10",
") 	c #134B10",
"! 	c #134A10",
"~ 	c #13480F",
"{ 	c #193911",
"] 	c #82BF64",
"^ 	c #669F4E",
"/ 	c #5CA745",
"( 	c #6DC859",
"_ 	c #78D568",
": 	c #8CE680",
"< 	c #97F18D",
"[ 	c #9AF693",
"} 	c #9EF396",
"| 	c #9BEC93",
"1 	c #91E18B",
"2 	c #8CCE88",
"3 	c #B0D7AA",
"4 	c #2E5929",
"5 	c #0B2409",
"6 	c #70B346",
"7 	c #50932C",
"8 	c #399E1D",
"9 	c #3CBB21",
"0 	c #4BD032",
"a 	c #59E243",
"b 	c #60F04E",
"c 	c #64FB56",
"d 	c #62F956",
"e 	c #5DED52",
"f 	c #54DB49",
"g 	c #3CC035",
"h 	c #34952C",
"i 	c #50824B",
"j 	c #175911",
"k 	c #0C4908",
"l 	c #067400",
"m 	c #09A100",
"n 	c #26C91A",
"o 	c #298322",
"p 	c #348D2B",
"q 	c #3E8E36",
"r 	c #418E39",
"s 	c #3B8E34",
"t 	c #328E2A",
"u 	c #288221",
"v 	c #227519",
"w 	c #089E00",
"x 	c #0C6805",
"y 	c #0C5C06",
"z 	c #105E0B",
"A 	c #27CA1A",
"B 	c #50FE41",
"C 	c #1F7419",
"D 	c #52C03E",
"E 	c #22C518",
"F 	c #098901",
"G 	c #0C7204",
"H 	c #176D10",
"I 	c #8DFE81",
"J 	c #2D7D26",
"K 	c #53E842",
"L 	c #3DDC31",
"M 	c #16A20D",
"N 	c #0E8705",
"O 	c #2B7824",
"P 	c #2F7929",
"Q 	c #62F352",
"R 	c #4BEC3D",
"S 	c #21AC15",
"T 	c #109205",
"U 	c #175513",
"V 	c #69F75A",
"W 	c #50F141",
"X 	c #22B119",
"Y 	c #139708",
"Z 	c #49EC3C",
"` 	c #1FAE16",
"          .                     ",
"        + @                     ",
"      # $ %                     ",
"    & * = - ; > , , , ' ) ! ~ ; ",
"  { ] ^ / ( _ : < [ } | 1 2 3 4 ",
"5 6 7 8 9 0 a b c d e f g h i j ",
"  k l m n o p q r s t u v w x y ",
"    z A B C             D E F G ",
"      H I J             K L M N ",
"        O P             Q R S T ",
"          U             V W X Y ",
"                          Z `   ",
"                                ",
"                                ",
"                                ",
"                                "};
