/* XPM */
static const char * wcm_xpm[] = {
"32 32 300 2",
"  	c None",
". 	c #9B9B9B",
"+ 	c #EAEAEA",
"@ 	c #EEEEEE",
"# 	c #949494",
"$ 	c #9D9D9D",
"% 	c #F7F7F7",
"& 	c #9C9C9C",
"* 	c #ACACAC",
"= 	c #F9F9F9",
"- 	c #ABABAB",
"; 	c #E6E6E6",
"> 	c #727272",
", 	c #8A8A8A",
"' 	c #E3E3E3",
") 	c #F5F5F5",
"! 	c #E1E1E1",
"~ 	c #8B8B8B",
"{ 	c #7E7E7E",
"] 	c #ECECEC",
"^ 	c #B3B3B3",
"/ 	c #A3A3A3",
"( 	c #F3F3F3",
"_ 	c #F4F4F4",
": 	c #E9E9E9",
"< 	c #A5A5A5",
"[ 	c #F2F2F2",
"} 	c #F1F1F1",
"| 	c #E8E8E8",
"1 	c #A6A6A6",
"2 	c #EDEDED",
"3 	c #EFEFEF",
"4 	c #BDBDBD",
"5 	c #969696",
"6 	c #EBEBEB",
"7 	c #E7E7E7",
"8 	c #A8A8A8",
"9 	c #CACACA",
"0 	c #F6F6F6",
"a 	c #E2E2E2",
"b 	c #E0E0E0",
"c 	c #C7C7C7",
"d 	c #757575",
"e 	c #DCDCDC",
"f 	c #E5E5E5",
"g 	c #CDD0D4",
"h 	c #A8B0BC",
"i 	c #A2ACBB",
"j 	c #A2AEBF",
"k 	c #A0ABBD",
"l 	c #9BA5B6",
"m 	c #9FA8B5",
"n 	c #C4C7CC",
"o 	c #D2D2D2",
"p 	c #6C6C6C",
"q 	c #818181",
"r 	c #ECEDED",
"s 	c #A5ADBA",
"t 	c #A7B2C3",
"u 	c #B8C1CF",
"v 	c #B9C2CF",
"w 	c #B6BFCE",
"x 	c #B3BCCB",
"y 	c #AFB8C8",
"z 	c #A7B2C2",
"A 	c #929FB4",
"B 	c #959FAE",
"C 	c #DBDBDC",
"D 	c #DBDBDB",
"E 	c #D5D5D5",
"F 	c #797979",
"G 	c #939393",
"H 	c #DEDEDE",
"I 	c #E2E2E3",
"J 	c #97A2B3",
"K 	c #AAB4C4",
"L 	c #AFB9C9",
"M 	c #ADB7C7",
"N 	c #ABB5C6",
"O 	c #A8B3C5",
"P 	c #A5B0C2",
"Q 	c #A1ADBF",
"R 	c #9CA8BB",
"S 	c #97A3B7",
"T 	c #8B9AAF",
"U 	c #818EA3",
"V 	c #D8D9DA",
"W 	c #D4D4D4",
"X 	c #CFCFCF",
"Y 	c #898989",
"Z 	c #CECECE",
"` 	c #DFDFDF",
" .	c #9BA4B3",
"..	c #A2ADBF",
"+.	c #A1ADC0",
"@.	c #9DAABC",
"#.	c #96A1B3",
"$.	c #9DABC0",
"%.	c #9AA9BF",
"&.	c #96A5BC",
"*.	c #91A1B8",
"=.	c #8B9BB2",
"-.	c #8393AA",
";.	c #7788A1",
">.	c #8893A5",
",.	c #CDCDCD",
"'.	c #CBCBCB",
").	c #C3C3C3",
"!.	c #787878",
"~.	c #D7D7D7",
"{.	c #DADADA",
"].	c #C3C6CB",
"^.	c #8392A9",
"/.	c #94A1B6",
"(.	c #94A2B8",
"_.	c #94A1B4",
":.	c #C7C8CA",
"<.	c #D8D8D8",
"[.	c #ABAFB5",
"}.	c #8895A8",
"|.	c #8EA0BB",
"1.	c #899CB8",
"2.	c #8396B2",
"3.	c #7A8DA9",
"4.	c #6F819D",
"5.	c #5C708E",
"6.	c #B4B8BE",
"7.	c #C8C8C8",
"8.	c #777777",
"9.	c #878787",
"0.	c #A9A9A9",
"a.	c #CCCCCC",
"b.	c #949FAF",
"c.	c #8291A9",
"d.	c #8696AE",
"e.	c #8899B2",
"f.	c #B6C0CF",
"g.	c #FAFAFA",
"h.	c #A6ABB2",
"i.	c #7F8EA6",
"j.	c #7D93B4",
"k.	c #748AAB",
"l.	c #677C9D",
"m.	c #566B8B",
"n.	c #7D8A9E",
"o.	c #BBBBBB",
"p.	c #B5B5B5",
"q.	c #9A9A9A",
"r.	c #BABABA",
"s.	c #D0D0D0",
"t.	c #D3D3D3",
"u.	c #D6D6D6",
"v.	c #73839C",
"w.	c #7587A1",
"x.	c #788BA7",
"y.	c #7B8FAC",
"z.	c #B9C4D5",
"A.	c #F0F0F0",
"B.	c #A3AAB4",
"C.	c #6F88AD",
"D.	c #617AA0",
"E.	c #5E7394",
"F.	c #60728E",
"G.	c #B8B8B8",
"H.	c #B6B6B6",
"I.	c #D1D1D1",
"J.	c #D9D9D9",
"K.	c #4B6082",
"L.	c #637796",
"M.	c #6B80A0",
"N.	c #7086A7",
"O.	c #B3C0D3",
"P.	c #98ABC6",
"Q.	c #6682AA",
"R.	c #32507D",
"S.	c #19345F",
"T.	c #B4B4B4",
"U.	c #B2B2B2",
"V.	c #C4C4C4",
"W.	c #163564",
"X.	c #2C4B79",
"Y.	c #405F8D",
"Z.	c #A0B0C9",
"`.	c #E4E4E4",
" +	c #F1F2F3",
".+	c #7393C1",
"++	c #476CA1",
"@+	c #2A4C7D",
"#+	c #1C3762",
"$+	c #B1B1B1",
"%+	c #C1C1C1",
"&+	c #364E73",
"*+	c #234474",
"=+	c #305284",
"-+	c #95A8C4",
";+	c #D3DCE9",
">+	c #92AED7",
",+	c #688DC3",
"'+	c #5378AF",
")+	c #305184",
"!+	c #3A5176",
"~+	c #767676",
"{+	c #999999",
"]+	c #BEBEBE",
"^+	c #707F98",
"/+	c #143261",
"(+	c #224273",
"_+	c #7C94B6",
":+	c #CFD7E4",
"<+	c #9AB5DC",
"[+	c #7EA1D6",
"}+	c #7FA2D7",
"|+	c #759ACF",
"1+	c #5B81B7",
"2+	c #2D4F81",
"3+	c #72829A",
"4+	c #989898",
"5+	c #747474",
"6+	c #707070",
"7+	c #BCC1C7",
"8+	c #13305E",
"9+	c #1D3D6E",
"0+	c #2C4E80",
"a+	c #3B5E92",
"b+	c #97ABC9",
"c+	c #B9C8DD",
"d+	c #8CA8CF",
"e+	c #7196CB",
"f+	c #7DA1D5",
"g+	c #87AADE",
"h+	c #8CAFE2",
"i+	c #82A5DA",
"j+	c #5B80B5",
"k+	c #234272",
"l+	c #BEC2C8",
"m+	c #6F6F6F",
"n+	c #BCBCBC",
"o+	c #718099",
"p+	c #254577",
"q+	c #345689",
"r+	c #43679B",
"s+	c #5277AE",
"t+	c #6086BC",
"u+	c #6E93C8",
"v+	c #7CA0D5",
"w+	c #89ACE0",
"x+	c #95B7EA",
"y+	c #82A6DA",
"z+	c #416498",
"A+	c #75849D",
"B+	c #8E8E8E",
"C+	c #CCCCCD",
"D+	c #4F6483",
"E+	c #193868",
"F+	c #28497A",
"G+	c #37598C",
"H+	c #456A9F",
"I+	c #5479B0",
"J+	c #6187BD",
"K+	c #789CD2",
"L+	c #789CD1",
"M+	c #4E71A6",
"N+	c #5E7393",
"O+	c #8D8D8D",
"P+	c #717171",
"Q+	c #C4C5C5",
"R+	c #728199",
"S+	c #1A3866",
"T+	c #234475",
"U+	c #305285",
"V+	c #3C5F93",
"W+	c #466BA0",
"X+	c #4C71A6",
"Y+	c #486CA1",
"Z+	c #355688",
"`+	c #7F8FA8",
" @	c #E9E9EA",
".@	c #C9C9C9",
"+@	c #C6C6C6",
"@@	c #C0C0C0",
"#@	c #C3C6CC",
"$@	c #77879F",
"%@	c #435B80",
"&@	c #2E4A75",
"*@	c #314D79",
"=@	c #4A6388",
"-@	c #7E8DA6",
";@	c #CCD0D5",
">@	c #C2C2C2",
",@	c #C5C5C5",
"'@	c #DDDDDD",
")@	c #909090",
"!@	c #9F9F9F",
"~@	c #979797",
"{@	c #9E9E9E",
"]@	c #5B5B5B",
"^@	c #5A5A5A",
"/@	c #929292",
"(@	c #A4A4A4",
"_@	c #7B7B7B",
"                                                                ",
"                          . + @ @ + #                           ",
"                          $ % % % % &                           ",
"                          * = = = = -                           ",
"            . ; >       , ' ) ) ) ) ! ~       { ] ^             ",
"          / ( _ : , < @ ) _ _ ( ( [ [ } | 1 # 2 3 @ 4           ",
"        5 2 } _ ) ) ) ) ) _ _ ( [ } 3 3 @ @ @ 2 6 | 7 8         ",
"        9 7 6 ( 0 0 % 0 0 ) ] a ! | 3 2 ] 6 + : ; a b c         ",
"        d e f 6 0 = = ) g h i j k l m n 7 : | ; ! e o p         ",
"          q ! ' ] = r s t u v w x y z A B C f a D E F           ",
"          G H b a I J K L M N O P Q R S T U V e W X Y           ",
"          Z e H `  .R ..+.@.#.$.%.&.*.=.-.;.>.E ,.'.).          ",
"        !.~.{.e ].^./.(._.:.<.[.}.|.1.2.3.4.5.6.7.,.o 8.        ",
"  9.0.^ a.E <.D b.c.d.e.f.g.[ ] e h.i.j.k.l.m.n.9 X W ,.o.p.q.  ",
"  r.'.Z s.t.u.{.v.w.x.y.z.= A.: f 7 ! B.C.D.E.F.X t.t.s.Z '.G.  ",
"  H.7.'.Z I.W J.K.L.M.N.O.= 3 7 ! ' 2 0 P.Q.R.S.E t.I.Z '.7.T.  ",
"  U.V.7.'.Z I.<.S.W.X.Y.Z.= A.| a `.+  +.+++@+#+<.I.Z '.7.V.$+  ",
"  0.%+V.7.'.Z E &+W.*+=+-+= 3 f e ! ;+>+,+'+)+!+E Z '.7.V.%+0.  ",
"  ~+{+1 ]+7.'.Z ^+/+(+=+_+g.A.: :+<+[+}+|+1+2+3+Z '.7.]+< 4+5+  ",
"        6+).c '.7+8+9+0+a+b+c+d+e+f+g+h+i+j+k+l+'.c ).m+        ",
"          n+V.7.,.o+W.p+q+r+s+t+u+v+w+x+y+z+A+,.7.V.o.          ",
"          B+V.c 7.C+D+E+F+G+H+I+J+u+K+L+M+N+C a.7.V.O+          ",
"          P+4 ]+4 4 Q+R+S+T+U+V+W+X+Y+Z+`+ @7 E .@+@5+          ",
"        P+]+]+@@).+@'.I.#@$@%@&@*@=@-@;@`.`.`.b I.c >@!.        ",
"        +@,@7.9 a.Z s.I.t.W J.'@H '@D e '@'@'@e <.a.,@,@        ",
"        )@+@.@'.,.X s.I.t.t.W W W E E u.u.u.u.E t.X 7.O+        ",
"          !@9 a.a.q ~@I.o t.W W W W t.o I.~@q ,.,.'.{@          ",
"            G 9 ]@      d '.W W W W '.5+      ^@9 /@            ",
"                          (@W E E W /                           ",
"                          q.u.u.u.u.{+                          ",
"                          _@o e D o _@                          ",
"                                                                "};
