/* XPM */
static const char * wcm_xpm[] = {
"32 32 121 2 ",
"   c #030705",
".  c #030807",
"X  c #001317",
"o  c #1E1F1E",
"O  c #001D25",
"+  c #00222B",
"@  c #152A2E",
"#  c #15353D",
"$  c #003C4B",
"%  c #153B44",
"&  c #00007F",
"*  c #0D0F7D",
"=  c #131376",
"-  c #1E1E75",
";  c #14147A",
":  c #191979",
">  c #23226D",
",  c #343364",
"<  c #222276",
"1  c #004556",
"2  c #004C5E",
"3  c #1A4A55",
"4  c #00566B",
"5  c #155564",
"6  c #155969",
"7  c #124C7A",
"8  c #005E74",
"9  c #00647C",
"0  c #156072",
"q  c #15677B",
"w  c #2E616E",
"e  c #4F4E57",
"r  c #41415F",
"t  c #4D4B58",
"y  c #4D565C",
"u  c #535355",
"i  c #5D5B51",
"p  c #6F6D47",
"a  c #64614C",
"s  c #726F45",
"d  c #6F764C",
"f  c #747244",
"g  c #787743",
"h  c #7B7942",
"j  c #737A4A",
"k  c #8C8938",
"l  c #908D36",
"z  c #989532",
"x  c #000080",
"c  c #000A87",
"v  c #0A0A86",
"b  c #000F8A",
"n  c #00148B",
"m  c #15138A",
"M  c #18198C",
"N  c #0F3E8F",
"B  c #002F97",
"V  c #0B3B92",
"C  c #00359A",
"Z  c #053A9D",
"A  c #093D9F",
"S  c #212192",
"D  c #272994",
"F  c #2C2B96",
"G  c #2A2A98",
"H  c #34359B",
"J  c #39379B",
"K  c #3A3B9D",
"L  c #3D3DA2",
"P  c #403D9E",
"I  c #14438E",
"U  c #19478A",
"Y  c #1A4989",
"T  c #125F83",
"R  c #006D87",
"E  c #126285",
"W  c #1A6285",
"Q  c #186B89",
"!  c #00728E",
"~  c #157389",
"^  c #007490",
"/  c #157B92",
"(  c #0044A2",
")  c #0A44A2",
"_  c #014BA7",
"`  c #0053A9",
"'  c #0159AC",
"]  c #3941A4",
"[  c #0377BB",
"{  c #037ABD",
"}  c #4243A2",
"|  c #4E4EA7",
" . c #4F4FA8",
".. c #524FA7",
"X. c #504FA8",
"o. c #5050A8",
"O. c #6666B3",
"+. c #6966B3",
"@. c #6969B5",
"#. c #6C72B9",
"$. c #7673B9",
"%. c #007AC0",
"&. c #15829B",
"*. c #258B9E",
"=. c #158BA7",
"-. c #158EAB",
";. c #1591AF",
":. c #0D88B6",
">. c #0A85B9",
",. c #1593B1",
"<. c #0A84C2",
"1. c #018BC6",
"2. c #0C88C4",
"3. c #0092C9",
"4. c #009ACD",
"5. c #05B5DA",
"6. c #8484C2",
"7. c #858EC7",
"8. c #8790C8",
"9. c #8890C8",
"0. c #9191C9",
/* pixels */
"1.` ` ' ` ` ` ` ` ` ` ` ` ` ` [ 3.{ { { { { { { >.%.{ { { { >.5.",
"` , > M J J J J J H J J J J F C V r * G L K K K K J K L ] K M { ",
"` s t K 6.6.6.6.6.6.6.6.6.6.+.A Y l < O.6.6.6.6.6.6.6.6.6.6.} { ",
"` i , F +.O.O.O.O.O.O.O.O.+...A I f ; | O.O.O.O.O.O.O.O.O.O.H { ",
"' i r G O.O.O.O.O.O.O.O.O.+...Z I f : | O.O.O.O.O.O.O.O.O.@.H [ ",
"` p t J 6.6.6.6.6.6.6.6.6.6.+.A Y k - O.6.6.6.6.6.6.6.6.6.6.} [ ",
"` t , S | | | | | | | | | ..P Z N a ; K  .o.o. .| | | | o.o.D [ ",
"` g e L 0.0.0.0.0.0.0.0.0.0.$.A Y z < @.0.9.0.0.0.0.0.0.0.0.} [ ",
"` t , S o.| | | | | | | ....K Z V a ; J o.| | ..| | | | | | D [ ",
"' j y L 9.9.9.9.9.9.9.9.9.9.#.) U k - O.6.6.6.6.6.6.6.6.6.6.} [ ",
"4.:.>.>.2.2.2.2.2.2.2.2.2.2.<.1.I f : | +.O.O.O.O.O.O.O.O.O.H [ ",
"4.:.>.%.2.2.2.2.2.2.2.2.2.2.<.1.I f : | O.O.O.+.O.O.O.O.O.O.H [ ",
"' d y L 7.7.9.7.7.7.8.7.7.9.#.) B & x & & & & & & & & & & & & [ ",
"` e , S o.o.o.o.X.| o.o.X.o.P Z B x x x x x & & & x & x & & x [ ",
"` h u L 0.0.0.0.0.0.0.0.0.0.$.A B & x x x x x & x x x x x x x { ",
"` - = v M M M M M M M M M M m Z B & x x x x x x x x x x x x x { ",
"` x x x & & & & & & & & & & & C B & x x x x x x x x x x x x x { ",
"` & x x x x x & x x x x x & & C B x x x x x x x & x x x x x x { ",
"` & x x x x x x x x x x x x & C B & x x x x x & x x x x x x x { ",
"` & x x x x x x x x x & x x & C B & x x x x x x x x x x x x x [ ",
"` & x x x x x x x x x x x x & C B & x x x x x x x x x x x x x { ",
"` & x x x x x x x x x x x x & C B & x x x x x x & x x x x x x { ",
"` & x x x x & x x x x x x x & C B & x x x x x x x x x x x x x [ ",
"` & x x x x x x x x x x x & & C B & x x x x x x x x x x x x v [ ",
"` & x x x x x x x x x x x x & C B & x x x x x x x x x & x x x { ",
"` & x x x x x x x x x x x x & C B x x x x x x x x x x x x x x { ",
"' n n n n n n n n n n n n n n ( A n n n n n n n n n n n n n n <.",
"_ c c c n c c c c c c c b c c Z C b b b n n b n n n b n n n n 2.",
"E 7 7 7 7 7 7 7 7 7 7 7 7 7 7 T Q W W W T W W W W W W W W W W *.",
". . . . .   . . . .   .           . . .         .       . . . o ",
"2 ! ! ^ $ + ! ! ^ 8 X 8 ^ ! ! + $ ^ ! ^ 1 O R ! ^ 9 X 4 ^ ^ ! 3 ",
"q ;.;.;.6 # -.;.;./ @ / ,.,.-.% 5 ,.,.,.0 # =.,.,.&.@ ~ ,.-.-.w "
};
