/* XPM */
static const char * wcm_xpm[] = {
/* columns rows colors chars-per-pixel */
"64 64 160 2 ",
"   c #000000",
".  c #000709",
"X  c #000A0D",
"o  c #000F13",
"O  c #001216",
"+  c #00151A",
"@  c #00191F",
"#  c #00242D",
"$  c #002B35",
"%  c #00323E",
"&  c #32302F",
"*  c #323334",
"=  c #323A3C",
"-  c #3D3D3D",
";  c #003542",
":  c #003E4D",
">  c #0F0C77",
",  c #00007E",
"<  c #08077B",
"1  c #0D0C79",
"2  c #101077",
"3  c #1E1E70",
"4  c #211E6E",
"5  c #23226D",
"6  c #26296F",
"7  c #2D2C69",
"8  c #363665",
"9  c #3A3A64",
"0  c #202070",
"q  c #00404F",
"w  c #004555",
"e  c #364548",
"r  c #32525A",
"t  c #005265",
"y  c #005A6F",
"u  c #005E74",
"i  c #205C60",
"p  c #315A63",
"a  c #00647B",
"s  c #2F6363",
"d  c #32626D",
"f  c #326976",
"g  c #326C7B",
"h  c #32707E",
"j  c #43435E",
"k  c #4A495A",
"l  c #585753",
"z  c #5E5E51",
"x  c #5D6154",
"c  c #63634E",
"v  c #6B6B4B",
"b  c #6D724B",
"n  c #7A7A43",
"m  c #636565",
"M  c #8A8A3B",
"N  c #8C903C",
"B  c #989834",
"V  c #A3A32E",
"C  c #ABAB2A",
"Z  c #B2B227",
"A  c #A1A532",
"S  c #C5C51D",
"D  c #CDCD19",
"F  c #D5D515",
"G  c #E3E30E",
"H  c #E9E90B",
"J  c #FAFA03",
"K  c #808040",
"L  c #000080",
"P  c #090683",
"I  c #000C86",
"U  c #0B0B86",
"Y  c #000F8B",
"T  c #0F0F88",
"R  c #120F88",
"E  c #00128A",
"W  c #001E8F",
"Q  c #111188",
"!  c #19168B",
"~  c #002693",
"^  c #003199",
"/  c #003A9D",
"(  c #2E2E97",
")  c #34349A",
"_  c #35399C",
"`  c #3B3B9D",
"'  c #007A97",
"]  c #327180",
"[  c #0045A2",
"{  c #004AA5",
"}  c #0055AB",
"|  c #005DAE",
" . c #0B5DAD",
".. c #3F44A2",
"X. c #0969AF",
"o. c #0D71AC",
"O. c #0063B1",
"+. c #006AB4",
"@. c #0073B9",
"#. c #007EBF",
"$. c #4343A2",
"%. c #494BA6",
"&. c #4E4EA7",
"*. c #4F53AA",
"=. c #5353A9",
"-. c #575BAD",
";. c #5B5BAD",
":. c #5F5FB0",
">. c #5E62B1",
",. c #6262B1",
"<. c #6969B5",
"1. c #7474BA",
"2. c #7B7BBE",
"3. c #0085A4",
"4. c #0090B2",
"5. c #0096B9",
"6. c #0099BD",
"7. c #558587",
"8. c #0082C1",
"9. c #018EC6",
"0. c #0F88C2",
"q. c #009DC2",
"w. c #009ECE",
"e. c #0B9DCC",
"r. c #019FD0",
"t. c #00A1C7",
"y. c #00A4CC",
"u. c #10AEC7",
"i. c #14B3C4",
"p. c #01A1D1",
"a. c #01ABD5",
"s. c #0DACD5",
"d. c #11AFD7",
"f. c #00B2D9",
"g. c #01B9DC",
"h. c #11B0D7",
"j. c #12B1D8",
"k. c #01C1E0",
"l. c #00CBE5",
"z. c #0BD7EB",
"x. c #00DAED",
"c. c #0BDBED",
"v. c #00E0EF",
"b. c #1AE3EF",
"n. c #0BE7F3",
"m. c #8585C3",
"M. c #8A8AC5",
"N. c #9898CC",
"B. c #A1A1D0",
"V. c #ADADD6",
"C. c #B1B1D8",
"Z. c #BDBDDE",
"A. c #C1C1E0",
"S. c #CACAE5",
"D. c #D3D3E9",
"F. c #D8D7EB",
"G. c #DEDEEE",
"H. c #E0DFEF",
"J. c #E0E0EF",
"K. c #E2E2F1",
/* pixels */
"x.g.f.f.g.f.f.f.f.f.f.f.f.f.f.f.f.f.f.g.f.f.f.f.f.g.f.f.f.f.f.l.v.x.x.x.x.x.x.x.x.x.x.x.x.x.x.x.x.x.x.x.x.x.x.x.x.x.x.x.x.x.x.n.",
"a.~ E E E E E E E E E E E E E E E E E E E E E E E E E E E E I @.8.[ [ [ [ [ [ [ [ [ [ [ [ [ [ [ [ [ [ [ [ [ [ [ [ [ [ [ [ [ +.c.",
"a.E , , , L L L , , , , , , , , , , L L , , , , , , , , , , , +.} , < , , , , , , , , , , , , , , < , , , , , , , < , , , , / c.",
"a.Y 0 B c , P $.;.=.;.-.;.-.;.=.:.=.;.=.;.=.:.=.;.=.:.=.:.` L +.} > K K > , ) :.=.:.=.;.=.:.=.;.=.:.=.;.=.:.=.:.=.;.=.;.%.< / z.",
"a.Y l J S 2 T V.F.H.F.H.F.J.F.J.D.H.D.H.D.H.D.H.F.J.D.J.F.B.P +.} 7 H H 7 L M.F.K.D.K.D.K.D.K.D.J.D.J.D.K.D.J.D.K.D.K.D.S.! / z.",
"a.Y 5 B v , P $.=.=.=.-.=.=.&.-.&.-.&.;.&.;.&.-.&.-.=.=.=.$.L +.} > M K > L ) *.-.&.;.&.;.&.;.&.;.&.-.&.-.=.-.&.;.&.;.=.&.< / z.",
"a.E < 9 0 L L U U U U U R U R U T U T U T U T U R U R U U P , +.} L 8 7 L L P T U Q U Q U U U T 1 Q U Q U R U R U R U R U , / z.",
"a.Y j G C 1 U M.C.C.C.C.V.C.V.C.C.C.C.C.C.C.V.C.C.C.C.C.C.2.< +.} 4 D D 0 L <.C.C.V.C.C.C.C.C.V.C.V.C.C.C.C.V.C.C.C.C.C.N.R / z.",
"a.Y k H Z > T M.C.Z.V.Z.V.Z.V.C.V.Z.V.Z.V.Z.V.Z.V.Z.V.Z.C.m.P +.} 5 F F 0 P 1.V.Z.V.Z.V.Z.V.Z.V.Z.V.Z.V.Z.V.Z.V.Z.V.Z.V.B.! / z.",
"a.E < j 0 L L U U U U U U U U U U U P U P P U U U U U U U U , +.} L 8 8 L L P U U U U P U U U U U U U U U U U U U U U U U , / z.",
"a.Y 0 N x , L $.;.=.;.=.;.=.;.=.;.=.;.=.-.*.;.*.-.&.;.&.;.) L +.} < n n > L ( ;.&.-.*.;.&.;.&.;.&.;.=.;.&.-.&.;.&.;.=.;.$.P / z.",
"a.Y l J S 2 T V.F.G.D.G.D.G.F.J.D.H.D.G.D.K.D.K.D.H.D.H.F.B.P +.} 7 H H 7 L M.F.K.D.K.D.K.D.K.D.J.D.J.D.J.D.J.D.J.D.J.F.S.! / z.",
"a.Y 5 B v , U $.=.-.=.-.=.;.=.;.=.;.=.;.=.;.&.;.=.;.&.;.=.$., +.} > M M 1 L ) =.:.&.;.&.;.=.;.=.;.=.;.=.;.=.-.=.;.=.;.=.=.P / z.",
"a.E < 9 3 L L U R U R U U U U U U U R U T U T U R U R U U P , +.} , 7 7 L L P T U T U T U T U Q U Q U R U Q U R U T U Q U , / z.",
"a.Y j G C 1 U M.V.V.V.V.V.V.C.V.V.C.V.C.V.V.V.C.V.V.V.V.C.2.P +.} 4 D D 0 L <.C.C.C.V.C.V.V.V.V.C.V.V.V.C.V.V.V.V.V.C.V.N.R / z.",
"a.Y k H Z > Q M.C.Z.C.Z.C.Z.C.Z.V.Z.C.Z.V.Z.V.Z.C.Z.C.Z.C.M.P +.} 4 F F 6 L 1.C.Z.V.Z.V.A.V.A.V.Z.V.Z.V.Z.V.A.V.A.V.Z.C.V.R / z.",
"a.E < j 6 L L U U U U U U U U U U U U U U T U U U U U U U U L +.} L 8 8 L L P U U U U U U U U U R U U U U U U U U U U U U , / z.",
"a.Y 0 M z , L $.;.&.-.&.;.&.-.&.-.&.-.&.-.&.-.&.;.&.=.=.;.) L +.} 1 n n > L ( ;.&.;.&.;.&.;.&.-.&.-.&.-.&.;.&.;.&.;.&.-.$.P / z.",
"a.Y l J S 2 R V.F.H.D.H.D.G.D.H.D.H.D.H.D.H.D.H.D.H.D.J.F.B.P +.} 7 H H 7 L M.D.K.D.K.D.K.D.K.D.J.D.J.D.K.D.K.F.K.F.K.F.S.! / z.",
"a.E 6 A b P U %.-.>.;.>.:.:.-.>.-.>.-.>.-.,.-.,.-.>.;.>.-.$.L +.} > M M 2 L _ =.;.=.:.=.;.=.:.=.:.=.:.=.:.=.;.=.;.=.:.=.=.U / z.",
"g.+.O.o.X.O.O.O.O.O.O.O.O.O.O.O.O.O.O.O.O.O.O.O.O.O.O.O.O.O.O.w.} , 7 7 L L P T U U U T U U U U U R U U U Q U U U U U Q P , / z.",
"k.w.u.i.u.y.r.s.d.d.d.d.d.d.d.h.d.d.d.d.d.d.d.d.d.d.d.d.d.s.w.g.} 4 D S 0 L <.C.V.V.V.V.V.V.V.V.V.V.V.V.V.V.V.V.V.V.V.V.N.R / z.",
"k.r.y.i.u.p.r.s.j.j.h.j.d.h.h.h.j.j.d.j.d.j.d.d.h.j.d.j.d.s.w.g.} 5 F F 6 L 1.C.A.V.A.V.A.C.A.V.A.V.A.V.A.V.A.V.A.V.A.C.C.Q / z.",
"g.+.+.o.+.O.O.O.O.O.O.O.O.O.O.O.O.O.O.O.O.O.O.O.O.O.O.O.O.O.O.w.} , 8 9 , L U Q Q T Q R Q Q Q T R U Q Q Q T Q Q Q Q Q U R , / z.",
"a.E 0 K x P I ..-.=.-.*.-.*.-.=.:.*.-.*.;.*.-.*.-.*.-.*.;._ L +.} , L L L L L , , , L , , L , , L , , , , , , , , , , , L , / z.",
"a.Y z J S 2 Q V.F.J.D.J.F.H.D.G.D.G.D.G.D.H.D.J.D.H.D.K.F.B.U +.} , L L L L L L L L L L L L L , L L L L L L L L L L L L L , / z.",
"a.Y 6 A v , P %.;.;.-.;.;.;.-.;.-.:.=.,.-.;.-.:.-.:.=.,.;.$., +.} < , L L L L L L , L L L L L L L L L L L L L L L L L L L , / z.",
"a.E P 8 3 L L P U U U U U U U U U U T P U U U P U U U U U P , +.} , L L L L L L L L L L L L L L L L L L L L L L L L L L L L / z.",
"a.Y j G V 1 U m.V.V.V.V.V.V.V.V.V.V.V.V.V.V.V.V.V.V.V.V.V.1.P +.} , L L L L L L L L L L L L L L L L L L L L L L L L L L L L / z.",
"a.Y k H Z 1 U N.Z.Z.C.A.C.Z.C.A.C.Z.C.A.C.A.C.A.C.Z.C.A.C.M.P +.} , , L L L , L L L L L L , L L L L L L L L L L L , L L L , / z.",
"a.E < j 7 L L T R Q Q Q T Q Q Q R Q Q Q T Q Q Q T Q Q Q Q T L +.} , L L L L L L L , L L L L L L L L , L L , L L L L L L L L / z.",
"a.E , L L L L L , , , , , L , L L L L L , , L , , L , , L L , +.} , L L L L L L L L L L L L L L L L L L L L L L L L L L L , / z.",
"a.E , L L L L L L L L L L L L L L L L L L L L L L L L L , , , +.} , L L , L L L , L L L L L L L L L L L L L L L L L L L L , / z.",
"a.E , L L L L L L L L L L L L L L L , L L L , L L , L L L , , +.} , L L L L L L L L L L L L L L L L L L , L L L L L L L L , / z.",
"a.E , L L L L L L L , L L L L , L L L L L L L L L L L L L L , +.} , , L L L L L L L L L L L L L L L L L L L L L L L , L L , / z.",
"a.E , L L L , L L L L L L L L L L L L L L L L L L L L L L L , +.} , , L L L L L L L L L L L L , L L L , L L L L L L L L L L / z.",
"a.E , L L L L L L L L L L L L L L L L L L L L L L L L L L L , +.} , L L , L L L L , L L L L L L L L L L L L L L L L L L L , / z.",
"a.E , L L L L L L , L L L L L L L L L , L L L L L L L L L L , +.} , L L L L L L L L L L , L L L L L L L L L L L L L L L L , / z.",
"a.E , L L L , L L L L L L L L L L L L L L , L L L L , L L L , +.} , L L L L L L L L L L L L L L L L L L L L L L L L L L L , / z.",
"a.E , L L L L L L L L L L L , L L L L L L L L L L L L L , , , +.} , L , L L L L L L L L L L L L L L , L L L , L L L L L L L / z.",
"a.E , L L L L L L L L L L L L L L L L L L L L L L L L L L L , +.} , , , L L L L L L L L L L , L L L L L L L L L L L L L L , / z.",
"a.E , L L L L L L L L L L L L L L L L L L L L , L L L L , L , +.} , L L L L , L L L L L L L L L L L L L L L L L L L L L L , / z.",
"a.E , L L L L L L L L L , L L L L L L L L L L L L L L L L L , +.} , L L L L L L L , L L L L L L L L L L L L L L , L L L L L / z.",
"a.E , L L L L L L , L L L L L L L , L L L L L L L , L L L L , +.} , L L L L L L L L L L L L L L , L L L , L L L L L L L L , / z.",
"a.E , L L L L L L L L L L L L , L L L , L L L , L L L L L , , +.} , , L L L L L L L L L L L L L L L L L L L L , L L L L L , / z.",
"a.E , L L , L L L L L L L L L L L L L L L L L L L L L L L , , +.} , L L L L , L L L L , L L L , L L L L L L L L L L L L L , / z.",
"a.E , L L L L L L L L L L L L L L L L L L L L L L L L L L L , +.} , , L L L L L L L L L L L L L , L L L L L L L L L L L L , / z.",
"a.E , L L L L L L , L L L L L L L L L L L L L L L , L L L L , +.} , , L L L L L L L L L L L L L L L L L L L L , L L L L L L / z.",
"a.E , L L L L L , L L , L L L L L L L L L L L L L L , L , L , +.} , L L L L L , L L , L L L L L L L L L L L , L L L L L L , / z.",
"a.E , L L L L L L L L L L L L L L L L L L L L L L L L L L L , +.} , L , L L L L L L L L L L , L L L L L L L L L L L L , L , / z.",
"a.E , L L L L L L L L L L L L L L L L L , L L L L L L L L L , +.} , L L L L L L L L L L L L L L , L L L L L L L L L L L L L / z.",
"a.E , L L L L , L L L L , L L L L L L L L L L L L L L L L , , +.} , L L L L L , L L L L L L L , L L L L L L L , L L L L L , / z.",
"a.W I I I I Y I I I Y I I Y I I Y I I I I I I Y I I Y I I I I @.| I I I I I I I I I I I I I I I I I I I I I I I I I I I I I [ z.",
"p.^ ~ ~ ~ ~ ~ ~ ~ ~ ~ ~ ~ ~ ~ ~ ~ ~ ~ ~ ~ ~ ~ ~ ~ ~ ~ ~ ~ ~ ~ #.+.W ~ ~ ~ ~ ~ ~ ~ ~ ~ ~ ~ ~ ~ ~ ~ ~ ~ ~ ~ ~ ~ ~ ~ ~ ~ ~ ~ ~ | c.",
"9.I , , L L , , L , , L , L L , , L , L L , L , L , L L L , , +.{ , , , , L L L , , , , , L , L , L L , , L , , , , , L , , [ c.",
"9.I , , L , , L L , , L , , , L , L , , , L , , L , , , , , , +.{ L L L L L I L L I L L L I L L L L I L L L I L L L I L L L { c.",
"s.X. . . . . . . . . . . . . . . . . . . . . . . . . . . . . .e.s.4.0.0.0.0.0.0.0.0.0.0.0.0.0.0.0.0.0.0.0.0.0.0.0.0.0.0.0.0.s.b.",
"i i i i i i i i i i i i i i i i i i i i i i i i i i i i i i i i d p s s s s s s s s s s s s s s s s s s s s s s s s s s s s s 7.",
"                                                                                                                              - ",
"                                                                                                                              - ",
"+ : w w w w w w q o   # w w w w w w w ; .   % w w w w w w w $   X q w w w w w w w +   @ w w w w w w w : X   $ w w w w w w w $ e ",
"% t.a.a.a.a.a.a.q.#   t f.a.a.a.a.a.a.3.X X ' a.a.a.a.a.a.f.u   @ q.a.a.a.a.a.a.y.;   w y.a.a.a.a.a.a.5.+   a g.a.a.a.a.a.a.a k ",
"$ 6.y.y.y.y.y.y.6.#   t y.y.y.y.y.y.y.3.X X ' y.y.y.y.y.y.y.y   @ 5.y.y.y.y.y.y.t.%   q t.y.y.y.y.y.y.4.O   a y.y.y.y.y.y.y.a e ",
"e g ] h h h h g f e & r ] h h g h h h d * * p h h h h g h ] r * = f h h g h h h g e * e h h h h h h h f = * r h h h h h h h r m "
};
