/* XPM */
static const char * wcmroot_xpm[] = {
/* columns rows colors chars-per-pixel */
"32 32 124 2 ",
"   c #020706",
".  c #020808",
"X  c #001217",
"o  c #001D25",
"O  c #00222B",
"+  c #152A2E",
"@  c #15353D",
"#  c #7F0025",
"$  c #7F0228",
"%  c #7E082F",
"&  c #7D0A30",
"*  c #771237",
"=  c #791137",
"-  c #751439",
";  c #003C4B",
":  c #153B44",
">  c #5E3D5D",
",  c #643354",
"<  c #693D51",
"1  c #643B5C",
"2  c #673F60",
"3  c #004556",
"4  c #004C5E",
"5  c #1A4A55",
"6  c #3F4C5C",
"7  c #00566B",
"8  c #155564",
"9  c #155969",
"0  c #005E74",
"q  c #355F6D",
"w  c #00647C",
"e  c #156072",
"r  c #15677B",
"t  c #3B626F",
"y  c #336270",
"u  c #346B78",
"i  c #404B5C",
"p  c #6F454F",
"a  c #714A4E",
"s  c #6D4451",
"d  c #5A4564",
"f  c #514F6C",
"g  c #594B6A",
"h  c #50506E",
"j  c #4E5B78",
"k  c #515572",
"l  c #644464",
"z  c #9B331D",
"x  c #9F3E1C",
"c  c #800027",
"v  c #860F29",
"b  c #891324",
"n  c #8F1A21",
"m  c #8A1428",
"M  c #8D1A28",
"N  c #901F29",
"B  c #850A30",
"V  c #8D163B",
"C  c #8C183B",
"Z  c #912229",
"A  c #A1401C",
"S  c #A74D19",
"D  c #A84C19",
"F  c #AF5A17",
"G  c #AA5318",
"H  c #B15E16",
"J  c #B36115",
"K  c #B96E14",
"L  c #BC7213",
"P  c #BE7913",
"I  c #B2761E",
"U  c #B47A1D",
"Y  c #A15722",
"T  c #8C1E41",
"R  c #902145",
"E  c #942A4C",
"W  c #992949",
"Q  c #9C3655",
"!  c #9E3856",
"~  c #9C3759",
"^  c #9C3B5A",
"/  c #A13C5A",
"(  c #A0435F",
")  c #964163",
"_  c #A04461",
"`  c #A34A66",
"'  c #A74E69",
"]  c #A84F6A",
"[  c #A8506B",
"{  c #B3667E",
"}  c #B5687F",
"|  c #C7890F",
" . c #C98D0E",
".. c #CD950D",
"X. c #006D87",
"o. c #00728E",
"O. c #157389",
"+. c #007490",
"@. c #157B92",
"#. c #3D7793",
"$. c #3D7A93",
"%. c #B66C84",
"&. c #BC7187",
"*. c #B17289",
"=. c #BD7389",
"-. c #15829B",
";. c #338B95",
":. c #158BA7",
">. c #158EAB",
",. c #1591AF",
"<. c #1593B1",
"1. c #1A9BBB",
"2. c #2A85A2",
"3. c #2A84AC",
"4. c #2B88AE",
"5. c #368BA2",
"6. c #3191A8",
"7. c #218EB1",
"8. c #21B5C7",
"9. c #BC8EA1",
"0. c #BD90A3",
"q. c #C28497",
"w. c #C38699",
"e. c #C991A2",
/* pixels */
"5.h h h h h h h h h h f h h g #.6.#.$.$.$.#.#.$.$.#.$.$.$.$.$.8.",
"k z Z V / Q Q Q Q Q ~ Q Q / W 1 < A v E ^ ^ ^ ^ ^ Q ^ ^ Q ^ C $.",
"k K D ~ q.q.q.q.q.q.q.q.q.q.%.1 a  .N { w.q.q.q.q.q.q.q.q.q._ ;.",
"k F x E } { { { { { { { } } ] 1 p L m ' } { { { { { { { { { Q #.",
"k F A E } { { { } { { { } } ] 1 p L b ] } { { { { { { { { } Q $.",
"k K S ^ q.q.q.q.q.q.q.q.q.w.} 1 a | N { q.q.q.q.q.q.q.q.q.q.( $.",
"k D z R [ [ ' ' [ [ ' ' ] ] / 1 p H m ^ [ ' ' ' ' ' ' ' ' ' E #.",
"k P G / e.e.w.e.e.w.e.e.e.e.&.l a ..Z %.e.e.e.e.w.e.e.e.e.e.` $.",
"k S z T ] ] ] ] ] ] ] ' [ [ / 1 s J m ! [ ' ' ' [ [ ' ' ' [ E $.",
"j U Y ) 0.0.0.0.9.0.0.9.0.0.*.l a  .M { q.q.q.q.q.q.q.q.q.q.( $.",
"1.4.2.3.4.4.4.4.4.4.4.4.4.4.3.7.s L M ` { { { { { { { { { { Q $.",
"1.5.4.@.4.4.4.4.4.4.4.4.4.4.3.7.s K M ' { { { { { { { { { { Q $.",
"j I Y ) 0.9.0.0.9.9.0.9.9.0.%.l , c c c # # # # # # # # # # # $.",
"k D z R [ ] [ [ ] ] [ [ [ [ / 1 , c c c $ c # c c c c c # # # $.",
"k P G / e.e.e.e.e.e.e.e.e.e.=.l , c c c c c c c c c c c c c $ $.",
"k n b B C C C C C C C C C C V 1 , c c c c c c # c c c c c c c ;.",
"k c $ c # # # $ c # # # c # # , , c c c # c c c c c c c c c $ $.",
"k c c c c c c c c c c c c c c > , c c c c c c c $ c c c $ c $ $.",
"k c c $ c c c c c c # c c c c < < c c c c c c # c c c c c c $ $.",
"k c c c c c c $ c c c c c c c 1 , c c c c c c c c c c $ c c c $.",
"k c c c c c c c # c c c c c c , , c c # c c c c c $ c c c c % $.",
"k c c c $ c c c c c c c c # c , < c c c c c c c c c c c c c c $.",
"h c c c c c $ c c c c # c c c , - c c c c c # c c c c c c c % $.",
"k c c c c c c c c c c c c c c , < # c c c c c c c c c c c c c $.",
"k c c $ c c c c c c # c c c c , , c c c c c c c $ c $ c c c $ $.",
"k c c c c c c $ $ # c c c c c > , c c c c c c c c c c c c c $ $.",
"j - - - - - - - - - - - - - - d 1 * - - - - = = - - - - - = - 5.",
"g v & & & & & & & & & & & & % 2 , = = = = = = = = = = = = = - 5.",
"y 6 6 6 6 6 6 6 6 6 6 6 6 6 i t u t t t t t t t t t t t t t t ;.",
"            .                       .           . .     . .   + ",
"4 +.o.+.; o o.o.o.w X 0 o.o.o.O ; +.o.+.3 o X.o.+.w X 7 +.o.X.5 ",
"r <.,.<.9 : >.<.,.@.+ @.<.<.>.: 8 <.<.<.e @ :.,.<.-.+ O.<.>.>.q "
};
