/* XPM */
static const char * xpm16x16_Executable[] = {
"16 16 60 1",
" 	c None",
".	c #8A8A8A",
"+	c #AEAEAE",
"@	c #979797",
"#	c #949494",
"$	c #A2A2A2",
"%	c #A9A9A9",
"&	c #959595",
"*	c #888888",
"=	c #9E9E9E",
"-	c #A4A4A4",
";	c #A8A8A8",
">	c #A3A3A3",
",	c #A6A6A6",
"'	c #A7A7A7",
")	c #ACACAC",
"!	c #878787",
"~	c #7D7D7D",
"{	c #939393",
"]	c #A5A5A5",
"^	c #969696",
"/	c #9B9B9B",
"(	c #B0B0B0",
"_	c #ABABAB",
":	c #9A9A9A",
"<	c #5F5F5F",
"[	c #606060",
"}	c #B9B9B9",
"|	c #B8B8B8",
"1	c #B7B7B7",
"2	c #B5B5B5",
"3	c #616161",
"4	c #898989",
"5	c #BEBEBE",
"6	c #BCBCBC",
"7	c #8E8E8E",
"8	c #BDBDBD",
"9	c #7F7F7F",
"0	c #909090",
"a	c #A1A1A1",
"b	c #ADADAD",
"c	c #A0A0A0",
"d	c #7A7A7A",
"e	c #9D9D9D",
"f	c #999999",
"g	c #929292",
"h	c #757575",
"i	c #6E6E6E",
"j	c #9C9C9C",
"k	c #989898",
"l	c #8B8B8B",
"m	c #6F6F6F",
"n	c #8C8C8C",
"o	c #6D6D6D",
"p	c #525252",
"q	c #686868",
"r	c #676767",
"s	c #666666",
"t	c #696969",
"u	c #505050",
"                ",
"                ",
"                ",
"     .+@        ",
"     #$%&*=-    ",
"     ;$$>,')!   ",
"  ~{']'^/+(_    ",
"  :%_+~<[&}|    ",
"  {12(3  4564   ",
"   7589  -(_%0  ",
"    522a$bc==!  ",
"   d+]aef&ghi   ",
"   0j:k7l.m     ",
"    nopq*.r     ",
"        stu     ",
"                "};
