/* XPM */
static const char * flag_red_xpm[] = {
"16 16 51 1",
" 	c None",
".	c #4E4E4E",
"+	c #212121",
"@	c #2A2727",
"#	c #3A0505",
"$	c #2E2B2B",
"%	c #3F0606",
"&	c #6A0909",
"*	c #8F1515",
"=	c #A72525",
"-	c #A93030",
";	c #2D2A2A",
">	c #6B0B0B",
",	c #941E1E",
"'	c #AD3434",
")	c #B34747",
"!	c #BB5959",
"~	c #C26B6B",
"{	c #CD8282",
"]	c #CE8686",
"^	c #C26A6A",
"/	c #952020",
"(	c #AD3636",
"_	c #B44B4B",
":	c #C06161",
"<	c #C67272",
"[	c #B66565",
"}	c #2A2828",
"|	c #6A0A0A",
"1	c #931C1C",
"2	c #AE3333",
"3	c #B44545",
"4	c #B04D4D",
"5	c #A75353",
"6	c #AD6262",
"7	c #C06B6B",
"8	c #262323",
"9	c #8D1313",
"0	c #9B2222",
"a	c #962B2B",
"b	c #9E3A3A",
"c	c #B04C4C",
"d	c #221F1F",
"e	c #3D0606",
"f	c #6C0A0A",
"g	c #1D1D1D",
"h	c #191919",
"i	c #141414",
"j	c #101010",
"k	c #0B0B0B",
"l	c #000000",
"  .             ",
"  +             ",
"  @#            ",
"  $%&*=-        ",
"  ;%>,')!~{]^   ",
"  ;%>/(_:<[     ",
"  }%|1234567!   ",
"  8%&90abc      ",
"  def           ",
"  g             ",
"  h             ",
"  i             ",
"  j             ",
"  k             ",
"  l             ",
"                "};
