/* XPM */
static const char * xpm16x16_Folder[] = {
"16 16 42 1",
" 	c None",
".	c #977A1D",
"+	c #B3AF93",
"@	c #B2AB74",
"#	c #B3AB74",
"$	c #B2AB75",
"%	c #B3AB76",
"&	c #B2A759",
"*	c #B3A85B",
"=	c #B2A85C",
"-	c #B2A85E",
";	c #B3A85E",
">	c #B2A444",
",	c #B2A547",
"'	c #B2A54A",
")	c #B3A64D",
"!	c #B2A64E",
"~	c #B3A64E",
"{	c #B3A335",
"]	c #B3A33A",
"^	c #B3A43F",
"/	c #B3A542",
"(	c #B3A544",
"_	c #000000",
":	c #B3A440",
"<	c #B3A546",
"[	c #B3A64B",
"}	c #B3A650",
"|	c #B3A752",
"1	c #B3A753",
"2	c #B3A649",
"3	c #B3A757",
"4	c #B3A85F",
"5	c #B3A857",
"6	c #B3A964",
"7	c #B3A967",
"8	c #B3AA68",
"9	c #B3A755",
"0	c #B3A85C",
"a	c #B3AA69",
"b	c #B3AA6D",
"c	c #B3AB6E",
"                ",
"                ",
"   ...          ",
"  .+++.         ",
" .@#$%%.......  ",
" .&*=-;-;-=*&.  ",
" .>,')!~!)',>.  ",
" .{]^/(((/^]{._ ",
" .:<[}|1|}[<:._ ",
" .2}3*;4;*3}2._ ",
" .}5;67876;5}._ ",
" .906abcba609._ ",
" .............  ",
"    _________   ",
"                ",
"                "};
