/* XPM */
static const char * xpm16x16_Monitor[] = {
"16 16 107 2",
"  	c None",
". 	c #9CA5B8",
"+ 	c #97A1B5",
"@ 	c #949FB5",
"# 	c #96A0B6",
"$ 	c #97A2B7",
"% 	c #98A3B9",
"& 	c #9AA4BA",
"* 	c #9BA5BB",
"= 	c #9CA6BC",
"- 	c #A0AABE",
"; 	c #BBC1CE",
"> 	c #AAB1BF",
", 	c #3B5386",
"' 	c #435B8D",
") 	c #475F91",
"! 	c #4B6395",
"~ 	c #4F6799",
"{ 	c #526A9D",
"] 	c #566EA0",
"^ 	c #5971A3",
"/ 	c #5C74A6",
"( 	c #5E76A9",
"_ 	c #96A2BB",
": 	c #A3ABBB",
"< 	c #385082",
"[ 	c #3F5789",
"} 	c #425A8D",
"| 	c #465E91",
"1 	c #4A6295",
"2 	c #4E6699",
"3 	c #526A9C",
"4 	c #556DA0",
"5 	c #5870A3",
"6 	c #5B73A6",
"7 	c #95A1BA",
"8 	c #9EA6B8",
"9 	c #354D7F",
"0 	c #3A5285",
"a 	c #3E5688",
"b 	c #425A8C",
"c 	c #465E90",
"d 	c #4A6294",
"e 	c #4E6698",
"f 	c #51699C",
"g 	c #556D9F",
"h 	c #5870A2",
"i 	c #94A0B9",
"j 	c #9DA6B7",
"k 	c #324A7D",
"l 	c #364E81",
"m 	c #3A5284",
"n 	c #3D5588",
"o 	c #41598C",
"p 	c #455D90",
"q 	c #496194",
"r 	c #4D6597",
"s 	c #51699B",
"t 	c #546C9F",
"u 	c #929EB7",
"v 	c #A8AEBB",
"w 	c #30487A",
"x 	c #334B7D",
"y 	c #364E80",
"z 	c #395184",
"A 	c #3D5587",
"B 	c #41598B",
"C 	c #455D8F",
"D 	c #496193",
"E 	c #4C6497",
"F 	c #50689B",
"G 	c #909CB6",
"H 	c #B4B8C2",
"I 	c #5C6D92",
"J 	c #596B91",
"K 	c #5B6D93",
"L 	c #5D6F95",
"M 	c #5F7197",
"N 	c #62749A",
"O 	c #64769C",
"P 	c #67799F",
"Q 	c #6A7CA2",
"R 	c #6C7EA4",
"S 	c #A7B0C1",
"T 	c #BDC0C6",
"U 	c #D1D1D1",
"V 	c #D3D3D3",
"W 	c #D6D6D6",
"X 	c #D8D8D8",
"Y 	c #DADADA",
"Z 	c #DDDDDD",
"` 	c #DFDFDF",
" .	c #E2E2E2",
"..	c #E5E5E5",
"+.	c #E7E7E7",
"@.	c #E4E4E4",
"#.	c #CBCBCB",
"$.	c #CDCDCD",
"%.	c #CFCFCF",
"&.	c #D2D2D2",
"*.	c #DCDCDC",
"=.	c #E0E0E0",
"-.	c #D7D7D7",
";.	c #E6E6E6",
">.	c #EDEDED",
",.	c #CCCCCC",
"'.	c #C1C1C1",
"                                ",
"                                ",
"      . + @ # $ % & * = - ;     ",
"    > , ' ) ! ~ { ] ^ / ( _     ",
"    : < [ } | 1 2 3 4 5 6 7     ",
"    8 9 0 a b c d e f g h i     ",
"    j k l m n o p q r s t u     ",
"    v w x y z A B C D E F G     ",
"    H I J K L M N O P Q R S     ",
"    T U V W X Y Z `  ...+.@.    ",
"      #.$.%.&.*.=.Y X X X -.    ",
"              ;.>.,.            ",
"            '.-.X U             ",
"                                ",
"                                ",
"                                "};
