/* XPM */
static const char * xpm16x16_Help[] = {
"16 16 90 1",
" 	c None",
".	c #0330BA",
"+	c #032FB8",
"@	c #234CC9",
"#	c #5A7FE6",
"$	c #6E91F1",
"%	c #7597F5",
"&	c #6D8FF1",
"*	c #577CE5",
"=	c #214BC8",
"-	c #032DB5",
";	c #4066D7",
">	c #6B8DED",
",	c #5173D8",
"'	c #FFFFFF",
")	c #7993DF",
"!	c #6789EC",
"~	c #3A60D4",
"{	c #2A51C9",
"]	c #6486E7",
"^	c #5476DC",
"/	c #4D6FD5",
"(	c #91A2D5",
"_	c #B7C3E6",
":	c #9DAEE1",
"<	c #5D80E2",
"[	c #244AC5",
"}	c #032AAF",
"|	c #567ADF",
"1	c #4B6DD3",
"2	c #4A6CD2",
"3	c #4567CD",
"4	c #395BC2",
"5	c #7589C3",
"6	c #CCCCCC",
"7	c #7789BC",
"8	c #2446AD",
"9	c #284AB1",
"0	c #385BC4",
"a	c #0227AB",
"b	c #5C7EDF",
"c	c #4163CA",
"d	c #3154BE",
"e	c #274BB5",
"f	c #5A73BD",
"g	c #CFCFD1",
"h	c #A5AEC7",
"i	c #2649B2",
"j	c #264AB4",
"k	c #3356BE",
"l	c #0225A7",
"m	c #5779DB",
"n	c #3B5FC8",
"o	c #2C52C0",
"p	c #2A50BE",
"q	c #284EB9",
"r	c #DBDBDB",
"s	c #294EBA",
"t	c #3156C3",
"u	c #0223A3",
"v	c #4165D0",
"w	c #3059CB",
"x	c #2F58CB",
"y	c #294FBC",
"z	c #2950C4",
"A	c #1A3AB4",
"B	c #3D67DB",
"C	c #3560D8",
"D	c #3059CD",
"E	c #EEEEEE",
"F	c #345FD7",
"G	c #1233B0",
"H	c #021E9B",
"I	c #2346C0",
"J	c #3D68E4",
"K	c #3A68E5",
"L	c #3A67E5",
"M	c #3865E3",
"N	c #1C40BD",
"O	c #021B96",
"P	c #112FAB",
"Q	c #2D56D4",
"R	c #3967E8",
"S	c #3E6EF0",
"T	c #3E6FF1",
"U	c #102EAB",
"V	c #021790",
"W	c #4274FA",
"X	c #010E80",
"Y	c #000572",
"                ",
"     ......     ",
"   +@#$%%&*=+   ",
"  -;>,'''')!~-  ",
"  {]^/((_':^<[  ",
" }|12234567890} ",
" ab3cdefghijjka ",
" lmnopqrrsppptl ",
" uvwxxxyyxxxxzu ",
"  ABCCDEEDCCFG  ",
"  HIJKFEEFLMNH  ",
"   OPQRSTTTUO   ",
"     VVVVVWV    ",
"          XX    ",
"           Y    ",
"                "};
