/* XPM */
static const char * xpm16x16_Workgroup[] = {
"16 16 156 2",
"  	c None",
". 	c #757272",
"+ 	c #747170",
"@ 	c #717070",
"# 	c #737170",
"$ 	c #BBDEE7",
"% 	c #9CC9D6",
"& 	c #9AC7D5",
"* 	c #FAFDFD",
"= 	c #6D6C6C",
"- 	c #7D7B7B",
"; 	c #5DADC4",
"> 	c #CEEEF6",
", 	c #BAE3EE",
"' 	c #D1E5EB",
") 	c #929091",
"! 	c #7A7A68",
"~ 	c #ADAD8C",
"{ 	c #AAAA8A",
"] 	c #AAAA89",
"^ 	c #A6A687",
"/ 	c #2D2D30",
"( 	c #61B0C6",
"_ 	c #D6F3FA",
": 	c #C4E9F2",
"< 	c #D2E5EA",
"[ 	c #8B8A8C",
"} 	c #96967A",
"| 	c #E3E3AD",
"1 	c #DEDEAA",
"2 	c #DCDCA8",
"3 	c #E1E1AB",
"4 	c #FFFFD3",
"5 	c #373739",
"6 	c #646463",
"7 	c #C8E1E8",
"8 	c #B8D3DC",
"9 	c #B4D2DA",
"0 	c #F2F3F5",
"a 	c #838282",
"b 	c #252527",
"c 	c #1F1F24",
"d 	c #4E4E4A",
"e 	c #E4E4AB",
"f 	c #343437",
"g 	c #8B8B8B",
"h 	c #D8D6D6",
"i 	c #D3D1D0",
"j 	c #D5D2D2",
"k 	c #DFDFDF",
"l 	c #434343",
"m 	c #303030",
"n 	c #B6B3B1",
"o 	c #AFACAC",
"p 	c #A6A2A6",
"q 	c #B4B2B2",
"r 	c #6A6A6A",
"s 	c #909090",
"t 	c #8E8E8E",
"u 	c #949494",
"v 	c #8C8C8E",
"w 	c #8A8A8D",
"x 	c #555555",
"y 	c #484442",
"z 	c #7BBFD2",
"A 	c #7DBFD2",
"B 	c #79BCD0",
"C 	c #B9DEE9",
"D 	c #BBB8B7",
"E 	c #717171",
"F 	c #7C7C6A",
"G 	c #BCBC93",
"H 	c #1D1D20",
"I 	c #484241",
"J 	c #6EB5CA",
"K 	c #DBF6FC",
"L 	c #D5F2F9",
"M 	c #BFDFE9",
"N 	c #BDBBBA",
"O 	c #737373",
"P 	c #767564",
"Q 	c #AFAE89",
"R 	c #29292B",
"S 	c #43403E",
"T 	c #99CDDE",
"U 	c #A6D3DF",
"V 	c #A3D1DD",
"W 	c #CAE4EC",
"X 	c #B6B4B3",
"Y 	c #6D6D6D",
"Z 	c #60605F",
"` 	c #C5C7C8",
" .	c #B2B7B9",
"..	c #AFB4B7",
"+.	c #C5C4C4",
"@.	c #5B5B5B",
"#.	c #393939",
"$.	c #DDD9D8",
"%.	c #E9E6E5",
"&.	c #E7E4E3",
"*.	c #F5F3F2",
"=.	c #808080",
"-.	c #807D7D",
";.	c #50A5BF",
">.	c #89C7D8",
",.	c #78BDD1",
"'.	c #DEEEF3",
").	c #949292",
"!.	c #A9A9A9",
"~.	c #CDCDCD",
"{.	c #C4C4C5",
"].	c #B0B0B0",
"^.	c #353535",
"/.	c #7C7A7A",
"(.	c #68B2C9",
"_.	c #CCEDF5",
":.	c #D0E5EA",
"<.	c #979595",
"[.	c #343435",
"}.	c #323232",
"|.	c #494947",
"1.	c #6D6D5F",
"2.	c #3E3E3E",
"3.	c #7C7A79",
"4.	c #94CAD9",
"5.	c #B0D6E2",
"6.	c #A5D1DD",
"7.	c #ECF4F7",
"8.	c #878686",
"9.	c #474746",
"0.	c #4E4E4B",
"a.	c #4A4A47",
"b.	c #464644",
"c.	c #6B6B60",
"d.	c #FFFFD8",
"e.	c #363638",
"f.	c #5A5A5A",
"g.	c #EBE8E6",
"h.	c #E1DEDD",
"i.	c #E0DDDC",
"j.	c #E9E8E8",
"k.	c #4F4F51",
"l.	c #FDFDBD",
"m.	c #FFFFD1",
"n.	c #FFFFCF",
"o.	c #37373A",
"p.	c #B5B5B5",
"q.	c #B4B4B4",
"r.	c #B8B8B8",
"s.	c #797979",
"t.	c #404040",
"u.	c #4B4B46",
"v.	c #474744",
"w.	c #444443",
"x.	c #7B7B7B",
"y.	c #7F7F7F",
"    . + + @                     ",
"  # $ % & * =                   ",
"  - ; > , ' ) ! ~ { { ] ^ /     ",
"  - ( _ : < [ } | 1 2 3 4 5     ",
"  6 7 8 9 0 a b     c d e f     ",
"  g h i j k l     m n o p q r   ",
"s t u v w x       y z A B C D E ",
"      F G H       I J K L M N O ",
"      P Q R       S T U V W X Y ",
"  Z `  ...+.@.    #.$.%.&.*.=.  ",
"  -.;.>.,.'.).    !.~.{.{.].^.  ",
"  /.(.K _.:.<.    [.}.|.1.2.    ",
"  3.4.5.6.7.8.9.0.a.b.c.d.e.    ",
"  f.g.h.i.j.k.l.4 m.m.n.n.o.    ",
"g p.p.q.r.s.t.u.v.v.v.v.w.      ",
"  x.y.y.y.                      "};
