/* XPM */
static const char * xpm16x16_Home[] = {
"16 16 125 2",
"  	c None",
". 	c #D46A26",
"+ 	c #A31D07",
"@ 	c #655960",
"# 	c #9DB4D1",
"$ 	c #9DB3D1",
"% 	c #722E18",
"& 	c #F97C2B",
"* 	c #C76223",
"= 	c #A01903",
"- 	c #C48380",
"; 	c #FFFFFF",
"> 	c #838A95",
", 	c #82280F",
"' 	c #E45D1F",
") 	c #E46A25",
"! 	c #C4571B",
"~ 	c #991600",
"{ 	c #B87B75",
"] 	c #717981",
"^ 	c #92260F",
"/ 	c #D14115",
"( 	c #D14B19",
"_ 	c #D44C0F",
": 	c #8E6C66",
"< 	c #813D34",
"[ 	c #8F1902",
"} 	c #C3BAC8",
"| 	c #F3FFFF",
"1 	c #746971",
"2 	c #C92D0F",
"3 	c #C23310",
"4 	c #B72E05",
"5 	c #928083",
"6 	c #EDF9FF",
"7 	c #7D4F4B",
"8 	c #790500",
"9 	c #968092",
"0 	c #946B78",
"a 	c #65190D",
"b 	c #C3270B",
"c 	c #A01D04",
"d 	c #A2A0A8",
"e 	c #FAFFFF",
"f 	c #8A7172",
"g 	c #710B00",
"h 	c #7F200D",
"i 	c #260903",
"j 	c #A7250C",
"k 	c #95220F",
"l 	c #B8C2CB",
"m 	c #9D9298",
"n 	c #731401",
"o 	c #51160B",
"p 	c #933728",
"q 	c #D0DEE7",
"r 	c #B5B4BB",
"s 	c #721F10",
"t 	c #869BAE",
"u 	c #F6FDFF",
"v 	c #DACFBA",
"w 	c #B37419",
"x 	c #B97D22",
"y 	c #B87D22",
"z 	c #AE741C",
"A 	c #F1F2F3",
"B 	c #F7FCFF",
"C 	c #69717F",
"D 	c #7C8FA6",
"E 	c #ECF8FF",
"F 	c #E9F7FF",
"G 	c #B59F75",
"H 	c #F7B349",
"I 	c #FBC65F",
"J 	c #FCC65F",
"K 	c #D28A20",
"L 	c #D2CEC5",
"M 	c #EAF5FF",
"N 	c #F0FBFF",
"O 	c #546272",
"P 	c #7086A5",
"Q 	c #DBEEFF",
"R 	c #D7EDFF",
"S 	c #B3A587",
"T 	c #E9A239",
"U 	c #F1B751",
"V 	c #EFB54F",
"W 	c #C77E16",
"X 	c #CAD1D6",
"Y 	c #D9EBFF",
"Z 	c #DFF2FF",
"` 	c #435264",
" .	c #C9E4FF",
"..	c #C5E2FF",
"+.	c #AFAA99",
"@.	c #B57519",
"#.	c #DC9E39",
"$.	c #E6A63E",
"%.	c #BD7109",
"&.	c #BED2E5",
"*.	c #C6E0FF",
"=.	c #CDE9FF",
"-.	c #324052",
";.	c #BBE0FF",
">.	c #B8DCFF",
",.	c #A8AEA8",
"'.	c #D18118",
").	c #E19C32",
"!.	c #E0992F",
"~.	c #B66700",
"{.	c #B5D4F8",
"].	c #BADBFF",
"^.	c #BEE2FF",
"/.	c #253346",
"(.	c #90BBF8",
"_.	c #8EB9F4",
":.	c #8B9EAE",
"<.	c #AB5E02",
"[.	c #B66E16",
"}.	c #B56D15",
"|.	c #9E5400",
"1.	c #8DB9F2",
"2.	c #90B8F0",
"3.	c #8EBAF7",
"4.	c #0D141E",
"                                ",
"              . + @ # $         ",
"          % & * = - ; ; >       ",
"        , ' ) ! ~ { ; ; ]       ",
"      ^ / ( _ : < [ } | 1       ",
"      2 3 4 5 ; 6 7 8 9 0       ",
"    a b c d ; ; ; e f g h i     ",
"    j k l ; ; ; ; ; ; m n o     ",
"    p q ; ; ; ; ; ; ; ; r s     ",
"    t ; u v w x y z A B ; C     ",
"    D E F G H I J K L M N O     ",
"    P Q R S T U V W X Y Z `     ",
"       ...+.@.#.$.%.&.*.=.-.    ",
"      ;.>.,.'.).!.~.{.].^./.    ",
"      (._.:.<.[.}.|.1.2.3.4.    ",
"                                "};
