/* XPM */
static const char * xpm16x16_Run[] = {
"16 16 21 1",
" 	c None",
".	c #6D7D95",
"+	c #6E7D90",
"@	c #627692",
"#	c #77818F",
"$	c #939596",
"%	c #647892",
"&	c #717D8F",
"*	c #989898",
"=	c #768292",
"-	c #69788E",
";	c #8C9095",
">	c #61738D",
",	c #868A8F",
"'	c #5F6E84",
")	c #64758E",
"!	c #8F9092",
"~	c #36547F",
"{	c #435F85",
"]	c #214A84",
"^	c #275590",
"                ",
"                ",
"                ",
"      .         ",
"      +@        ",
"      #$%       ",
"      &**=      ",
"      -***;     ",
"      >***,     ",
"      >**'      ",
"      )!~       ",
"      {]        ",
"      ^         ",
"                ",
"                ",
"                "};
